<?xml version="1.0" standalone="no"?>
<!DOCTYPE svg PUBLIC "-//W3C//DTD SVG 20010904//EN"
 "http://www.w3.org/TR/2001/REC-SVG-20010904/DTD/svg10.dtd">
<svg version="1.0" xmlns="http://www.w3.org/2000/svg"
 width="1651.000000pt" height="1590.000000pt" viewBox="0 0 1651.000000 1590.000000"
 preserveAspectRatio="xMidYMid meet">

<g transform="translate(0.000000,1590.000000) scale(0.100000,-0.100000)"
fill="#000000" stroke="none">
<path d="M5507 12713 l-2757 -1595 0 -3177 0 -3176 2728 -1575 c1500 -865
2734 -1578 2743 -1583 11 -7 688 379 2766 1578 l2750 1587 8 3185 c4 1751 5
3186 4 3187 -5 4 -5439 3140 -5464 3154 -18 9 -401 -210 -2778 -1585z m2005
-3885 l3 -643 708 -3 707 -2 0 645 0 645 275 0 275 0 0 -1525 0 -1525 -275 0
-275 0 0 650 0 650 -707 -2 -708 -3 -3 -647 -2 -648 -275 0 -275 0 0 1525 0
1525 275 0 275 0 2 -642z"/>
</g>
</svg>
